<?xml version="1.0" encoding="utf-8"?>
<!-- Generator: Adobe Illustrator 22.1.0, SVG Export Plug-In . SVG Version: 6.00 Build 0)  -->
<svg version="1.1" id="Layer_1" xmlns="http://www.w3.org/2000/svg" xmlns:xlink="http://www.w3.org/1999/xlink" x="0px" y="0px"
	 viewBox="0 0 342 231" style="enable-background:new 0 0 342 231;" xml:space="preserve">
<style type="text/css">
	.st0{fill:#262626;}
	.st1{fill:#FFFFFF;}
	.st2{fill:#60C194;}
	.st3{fill:#DAE5E5;}
</style>
<g>
	<rect x="14.5" y="12.5" class="st0" width="314.7" height="208.3"/>
	<path class="st1" d="M326.7,15v203.3H17V15H326.7 M331.7,10H12v213.3h319.7V10L331.7,10z"/>
</g>
<g>
	<path class="st2" d="M69.2,114c-1.1,0.6-3.6,1.2-6.9,1.2c-9.3,0-14.1-5.8-14.1-13.5c0-9.2,6.6-14.3,14.7-14.3
		c3.2,0,5.6,0.6,6.6,1.2l-1.2,4.8c-1.2-0.5-3-1-5.1-1c-4.8,0-8.6,2.9-8.6,8.9c0,5.4,3.2,8.8,8.6,8.8c1.8,0,3.9-0.4,5.1-0.9L69.2,114
		z"/>
	<path class="st2" d="M79.3,87.8v10.4h10V87.8h6.1v27h-6.1v-11.3h-10v11.3h-6.1v-27H79.3z"/>
	<path class="st2" d="M107,107.8l-1.9,6.9h-6.3l8.2-27h8l8.4,27h-6.6l-2.1-6.9H107z M113.9,103.3l-1.7-5.7c-0.5-1.6-1-3.6-1.4-5.2
		h-0.1c-0.4,1.6-0.8,3.6-1.2,5.2l-1.6,5.7H113.9z"/>
	<path class="st2" d="M150.7,101c0,8.8-5.4,14.2-13.2,14.2c-8,0-12.7-6-12.7-13.7c0-8.1,5.2-14.1,13.1-14.1
		C146.2,87.3,150.7,93.5,150.7,101z M131.2,101.3c0,5.3,2.5,9,6.6,9c4.1,0,6.5-3.9,6.5-9.2c0-4.8-2.3-9-6.5-9
		C133.6,92.2,131.2,96.1,131.2,101.3z"/>
	<path class="st2" d="M174.5,114c-1.1,0.6-3.6,1.2-6.9,1.2c-9.3,0-14.1-5.8-14.1-13.5c0-9.2,6.6-14.3,14.7-14.3
		c3.2,0,5.6,0.6,6.6,1.2l-1.2,4.8c-1.2-0.5-3-1-5.1-1c-4.8,0-8.6,2.9-8.6,8.9c0,5.4,3.2,8.8,8.6,8.8c1.8,0,3.9-0.4,5.1-0.9
		L174.5,114z"/>
	<path class="st2" d="M184.6,87.8v10.4h10V87.8h6.1v27h-6.1v-11.3h-10v11.3h-6.1v-27H184.6z"/>
	<path class="st2" d="M212.3,107.8l-1.9,6.9h-6.3l8.2-27h8l8.4,27h-6.6l-2.1-6.9H212.3z M219.2,103.3l-1.7-5.7
		c-0.5-1.6-1-3.6-1.4-5.2H216c-0.4,1.6-0.8,3.6-1.2,5.2l-1.6,5.7H219.2z"/>
	<path class="st2" d="M256,101c0,8.8-5.4,14.2-13.2,14.2c-8,0-12.7-6-12.7-13.7c0-8.1,5.2-14.1,13.1-14.1
		C251.4,87.3,256,93.5,256,101z M236.5,101.3c0,5.3,2.5,9,6.6,9c4.1,0,6.5-3.9,6.5-9.2c0-4.8-2.3-9-6.5-9
		C238.9,92.2,236.5,96.1,236.5,101.3z"/>
	<path class="st1" d="M268,87.8h6.1v21.8h10.7v5.1H268V87.8z"/>
	<path class="st1" d="M294.6,87.8v27h-6.1v-27H294.6z"/>
	<path class="st3" d="M121.2,134.7c1-0.2,2.3-0.3,4-0.3c2.1,0,3.6,0.5,4.5,1.3c0.9,0.8,1.4,1.9,1.4,3.4c0,1.5-0.4,2.6-1.2,3.5
		c-1.1,1.2-2.9,1.8-4.9,1.8c-0.6,0-1.2,0-1.7-0.1v6.5h-2.1V134.7z M123.3,142.5c0.5,0.1,1,0.2,1.7,0.2c2.5,0,4.1-1.2,4.1-3.5
		c0-2.1-1.5-3.2-3.8-3.2c-0.9,0-1.6,0.1-2,0.2V142.5z"/>
	<path class="st3" d="M146.2,144.8c0,4.3-3,6.2-5.8,6.2c-3.1,0-5.6-2.3-5.6-6c0-3.9,2.5-6.2,5.8-6.2
		C144,138.9,146.2,141.3,146.2,144.8z M137,144.9c0,2.5,1.5,4.5,3.5,4.5c2,0,3.5-1.9,3.5-4.5c0-2-1-4.5-3.5-4.5S137,142.7,137,144.9
		z"/>
	<path class="st3" d="M151.3,142.7c0-1.4,0-2.5-0.1-3.6h1.8l0.1,2.3h0.1c0.5-1.6,1.8-2.5,3.2-2.5c0.2,0,0.4,0,0.6,0.1v2
		c-0.2,0-0.4-0.1-0.7-0.1c-1.5,0-2.5,1.1-2.8,2.7c0,0.3-0.1,0.6-0.1,1v6.2h-2.1V142.7z"/>
	<path class="st3" d="M164.6,135.8v3.3h3v1.6h-3v6.3c0,1.4,0.4,2.3,1.6,2.3c0.6,0,1-0.1,1.2-0.1l0.1,1.6c-0.4,0.2-1.1,0.3-1.9,0.3
		c-1,0-1.8-0.3-2.3-0.9c-0.6-0.6-0.8-1.7-0.8-3v-6.3h-1.8v-1.6h1.8v-2.8L164.6,135.8z"/>
	<path class="st3" d="M172.7,150.7v-10H171v-1.6h1.6v-0.6c0-1.6,0.4-3.1,1.3-4.1c0.8-0.8,1.8-1.1,2.8-1.1c0.7,0,1.4,0.2,1.8,0.3
		l-0.3,1.6c-0.3-0.1-0.7-0.3-1.3-0.3c-1.8,0-2.3,1.6-2.3,3.4v0.6h2.8v1.6h-2.8v10H172.7z"/>
	<path class="st3" d="M192.1,144.8c0,4.3-3,6.2-5.8,6.2c-3.1,0-5.6-2.3-5.6-6c0-3.9,2.5-6.2,5.8-6.2
		C189.8,138.9,192.1,141.3,192.1,144.8z M182.8,144.9c0,2.5,1.5,4.5,3.5,4.5c2,0,3.5-1.9,3.5-4.5c0-2-1-4.5-3.5-4.5
		S182.8,142.7,182.8,144.9z"/>
	<path class="st3" d="M197.1,133.7h2.1v17h-2.1V133.7z"/>
	<path class="st3" d="M207.5,135.9c0,0.7-0.5,1.3-1.3,1.3c-0.7,0-1.3-0.6-1.3-1.3c0-0.7,0.6-1.3,1.3-1.3
		C207,134.5,207.5,135.1,207.5,135.9z M205.2,150.7v-11.6h2.1v11.6H205.2z"/>
	<path class="st3" d="M223.7,144.8c0,4.3-3,6.2-5.8,6.2c-3.1,0-5.6-2.3-5.6-6c0-3.9,2.5-6.2,5.8-6.2
		C221.5,138.9,223.7,141.3,223.7,144.8z M214.5,144.9c0,2.5,1.5,4.5,3.5,4.5c2,0,3.5-1.9,3.5-4.5c0-2-1-4.5-3.5-4.5
		S214.5,142.7,214.5,144.9z"/>
</g>
</svg>
